<svg width="125" height="125" viewBox="0 0 125 125" fill="none" xmlns="http://www.w3.org/2000/svg">
<path d="M86.6327 33.117L33.1171 86.6326C31.6522 88.0975 31.6034 90.6854 33.1171 92.1991C34.6796 93.7127 37.2186 93.7127 38.7323 92.1991L92.1991 38.7322C93.7128 37.2186 93.7616 34.6307 92.1991 33.117C90.6366 31.6522 88.1464 31.6033 86.6327 33.117ZM92.1991 86.6326L38.7323 33.117C37.2186 31.6522 34.6307 31.6033 33.1171 33.117C31.6522 34.6795 31.6522 37.2186 33.1171 38.7322L86.6327 92.1991C88.0975 93.7127 90.6854 93.7127 92.1991 92.1991C93.7128 90.6366 93.7128 88.0975 92.1991 86.6326Z" fill="black"/>
</svg>
