<svg width="125" height="125" viewBox="0 0 125 125" fill="none" xmlns="http://www.w3.org/2000/svg">
<path d="M98.6157 107.541C99.5433 107.541 100.276 106.906 100.471 105.978C103.059 93.5271 104.28 90.5975 117.512 88.7908C118.537 88.6443 119.27 87.9119 119.27 86.9353C119.27 85.9588 118.537 85.2264 117.512 85.0799C104.28 83.2732 102.327 80.1482 100.471 67.99C100.325 67.0135 99.5433 66.281 98.6157 66.281C97.6879 66.281 96.9554 66.9646 96.7602 67.9412C94.221 80.3924 92.9516 83.2732 79.7192 85.0799C78.645 85.2264 77.9614 85.9588 77.9614 86.9353C77.9614 87.9119 78.645 88.6443 79.7192 88.7908C92.9028 90.5975 94.8558 93.5271 96.7602 105.93C96.9066 106.906 97.5903 107.541 98.6157 107.541ZM81.3305 115.353C82.0141 115.353 82.6489 114.816 82.7954 114.133C84.1625 107.443 83.5766 107.443 90.6079 106.32C91.3403 106.174 91.8774 105.539 91.8774 104.855C91.8774 104.123 91.3403 103.537 90.6079 103.39C83.5766 102.121 84.1625 102.121 82.7954 95.6756C82.6489 94.8943 82.0629 94.3572 81.3305 94.3572C80.5493 94.3572 80.061 94.8455 79.8657 95.6756C78.4496 102.121 79.0356 102.121 72.0532 103.39C71.2719 103.537 70.7836 104.123 70.7836 104.855C70.7836 105.637 71.2719 106.174 72.1508 106.32C79.0356 107.443 78.4496 107.443 79.8657 113.986C80.061 114.767 80.5004 115.353 81.3305 115.353Z" fill="black"/>
</svg>
